' UML Boilerplate'
@startuml db_structure
'Users structure'
class User {
    +String username
    -String password
    +String spotifyId
    +String bio
    +String location
    +String link
    +Favorites favorites
    +List<Playlist> annotatedPlaylists
    +String[] pinnedPlaylists
    +ObjectId[] following
    +ObjectId[] followers
}

'Favorites structure'
class Favorites {
    +List<Playlist> genre
    +List<Playlist> artist
    +List<Playlist> album
}

'Playlist structure'
class Playlist {
    +String spotifyId
    +List<String> tags
    +Integer likes
    +User creator
    +String creator_username
    +List<String> genres
    +String title
    +String cover
}

'Song structure'
class Song {
    +String spotifyId
}

'Artist structure'
class Artist {
    +String name
    +String spotifyId
    +List<Genre> genres
}

'Notification structure'
class Notification {
    +String title
    +String type
    +ObjectId receiver
    +ObjectId sender
    +String status
    +Date createdAt
    +Date expiresAt
}
Playlist "1" *-- "*" Song

User "1" *-- "*" Playlist

User "1" *-- "1" Favorites

@enduml